<svg xmlns="http://www.w3.org/2000/svg" width="554" height="299" viewBox="0 0 554 299">
  <g fill="none" fill-rule="evenodd">
    <path fill="#B18A48" d="M496.024346,112.162551 C527.706769,112.162551 553.390193,87.0541485 553.390193,56.0813299 C553.390193,25.1085114 527.706769,0.000108529946 496.024346,0.000108529946 C464.341922,0.000108529946 438.658499,25.1085114 438.658499,56.0813299 C438.658499,87.0541485 464.341922,112.162551 496.024346,112.162551 L496.024346,112.162551 Z"></path>
    <path fill="#1D1C1B" d="M460 68.7531742L460 66.3682287 470.496074 53.0662559C471.504067 51.7622686 471.990385 50.60751 471.990385 49.1537514 471.990385 46.2847623 470.271955 44.3844029 467.358404 44.3844029 464.893091 44.3844029 462.726967 45.7632759 462.726967 49.1911942L460.037535 49.1911942C460.037535 45.0182178 462.913551 42 467.358404 42 471.728731 42 474.679273 44.7946461 474.679273 49.1537514 474.679273 51.2776824 474.006915 52.6565554 472.550139 54.5194719L463.24973 66.3682287 474.679273 66.3682287 474.679273 68.7531742 460 68.7531742zM493.877781 49.4522087C493.877781 46.5457768 492.23442 44.3849456 489.283878 44.3849456 486.332793 44.3849456 484.688888 46.5457768 484.688888 49.4522087L484.688888 61.5250799C484.688888 64.4309691 486.332793 66.592343 489.283878 66.592343 492.23442 66.592343 493.877781 64.4309691 493.877781 61.5250799L493.877781 49.4522087zM489.283878 68.9767459C485.137671 68.9767459 482 66.0708566 482 61.6737659L482 49.3035227C482 44.9064319 485.137671 42 489.283878 42 493.429542 42 496.567213 44.9064319 496.567213 49.3035227L496.567213 61.6737659C496.567213 66.0708566 493.429542 68.9767459 489.283878 68.9767459L489.283878 68.9767459z"></path>
    <polygon fill="#FEFEFE" points="508.968 68.53 508.968 44.981 504 49.341 504 46.285 508.968 42 511.657 42 511.657 68.53"></polygon>
    <polygon fill="#FFFFFF" points="533.718 44.385 533.718 42 519 42 519 48.558 521.646 48.558 521.646 44.385 530.886 44.385 521.683 68.53 524.515 68.53"></polygon>
    <path fill="#FFFFFF" d="M41.2651571,196.830723 C24.1243796,196.830723 11.1096826,193.189001 0,181.946926 L14.2843439,167.700201 C21.4262439,174.823564 31.1085257,177.196571 41.5828409,177.196571 C54.5975378,177.196571 61.580596,172.291017 61.580596,163.264582 C61.580596,159.308123 60.4703349,155.98168 58.0893389,153.766041 C55.8671848,151.70777 53.3273469,150.599137 48.0904613,149.807411 L34.4409409,147.90868 C24.7592031,146.482596 17.6167591,143.475231 12.5381714,138.567507 C7.14244395,133.182794 4.44430823,125.899349 4.44430823,116.400809 C4.44430823,96.2923802 19.3623877,82.2030227 43.804995,82.2030227 C59.3589858,82.2030227 70.6280543,86.0021134 80.3092481,95.3432858 L66.3414999,109.117907 C59.1996,102.311451 50.6292112,101.359643 43.1701715,101.359643 C31.4251214,101.359643 25.7117103,107.851362 25.7117103,115.609083 C25.7117103,118.46125 26.6631295,121.468614 29.0441255,123.684253 C31.2662796,125.741981 34.9169225,127.483344 39.5200726,128.117159 L52.8513653,130.01589 C63.1684706,131.441974 69.6755471,134.291427 74.4364511,138.724876 C80.46809,144.424868 83.1656817,152.659035 83.1656817,162.632395 C83.1656817,184.480015 64.9140991,196.830723 41.2651571,196.830723"></path>
    <polyline fill="#FFFFFF" points="200.047 195.881 180.993 195.881 180.993 176.722"></polyline>
    <path fill="#FFFFFF" d="M278.869679,83.1520085 L261.568972,83.1520085 L220.463745,195.88152 L243.476231,195.88152 L250.29936,175.932631 L290.4548,175.932631 L297.12235,195.88152 L320.134837,195.88152 L278.869679,83.1520085 Z M252.876188,168.221036 L256.490928,157.407655 L270.775272,116.4007 L284.583635,157.407655 L264.671828,157.407655 L252.876188,168.221036 Z"></path>
    <polygon fill="#FFFFFF" points="131.614 102.786 147.128 102.786 176.65 102.786 176.65 83.152 95.547 83.152 95.547 102.786 125.068 102.786 125.068 195.881 147.128 195.881 147.128 109.28"></polygon>
    <polygon fill="#FFFFFF" points="464.908 102.786 481.075 102.786 510.596 102.786 510.596 83.152 429.494 83.152 429.494 102.786 459.014 102.786 459.014 195.881 481.075 195.881 481.075 109.552"></polygon>
    <path fill="#FFFFFF" d="M394.413969,147.274431 C405.365354,143.317972 415.047635,133.501981 415.047635,117.666919 C415.047635,98.8272056 401.399203,83.1522256 378.38454,83.1522256 L334.10302,83.1522256 L334.10302,195.881195 L356.164087,195.881195 L356.164087,150.916153 L372.035218,150.916153 L394.096285,195.881195 L419.649698,195.881195 L394.413969,147.274431 Z M376.954964,132.550716 L362.136432,132.550716 L356.164087,143.868218 L356.164087,132.550716 L356.164087,102.785835 L376.954964,102.785835 C386.637246,102.785835 392.986568,108.960104 392.986568,117.666919 C392.986568,126.374276 386.637246,132.550716 376.954964,132.550716 L376.954964,132.550716 Z"></path>
    <polygon fill="#FFFFFF" points="146.337 214.475 146.337 219.513 153.226 219.513 153.226 221.765 146.337 221.765 146.337 228.753 143.823 228.753 143.823 212.223 154.413 212.223 154.413 214.475"></polygon>
    <path fill="#FFFFFF" d="M164.814097,215.356948 C164.23204,214.730187 163.324683,214.335138 162.347153,214.335138 C161.369622,214.335138 160.461721,214.730187 159.880208,215.356948 C159.065327,216.239296 158.902134,217.168313 158.902134,220.488244 C158.902134,223.808175 159.065327,224.736648 159.880208,225.618997 C160.461721,226.245757 161.369622,226.640806 162.347153,226.640806 C163.324683,226.640806 164.23204,226.245757 164.814097,225.618997 C165.628978,224.736648 165.791627,223.808175 165.791627,220.488244 C165.791627,217.168313 165.628978,216.239296 164.814097,215.356948 M166.722375,227.128106 C165.582196,228.266042 164.115628,228.892803 162.347153,228.892803 C160.578133,228.892803 159.135501,228.266042 157.994777,227.128106 C156.36556,225.50287 156.388951,223.668714 156.388951,220.488244 C156.388951,217.307231 156.36556,215.473075 157.994777,213.847839 C159.135501,212.710445 160.578133,212.083685 162.347153,212.083685 C164.115628,212.083685 165.582196,212.710445 166.722375,213.847839 C168.351593,215.473075 168.305354,217.307231 168.305354,220.488244 C168.305354,223.668714 168.351593,225.50287 166.722375,227.128106"></path>
    <polygon fill="#FFFFFF" points="172.027 228.753 174.541 228.753 174.541 212.223 172.027 212.223"></polygon>
    <path fill="#FFFFFF" d="M185.105982,214.474599 L181.381902,214.474599 L181.381902,219.652563 L185.105982,219.652563 C186.781981,219.652563 187.922161,218.700213 187.922161,217.074977 C187.922161,215.449741 186.781981,214.474599 185.105982,214.474599 L185.105982,214.474599 Z M188.015181,228.753342 L184.523924,221.788432 L181.381902,221.788432 L181.381902,228.753342 L178.868175,228.753342 L178.868175,212.223146 L185.292023,212.223146 C188.434045,212.223146 190.435888,214.242345 190.435888,217.051643 C190.435888,219.419766 188.992712,220.929418 187.130672,221.440051 L190.947772,228.753342 L188.015181,228.753342 Z"></path>
    <polygon fill="#FFFFFF" points="194.111 228.754 194.111 212.223 204.701 212.223 204.701 214.475 196.624 214.475 196.624 219.304 203.514 219.304 203.514 221.533 196.624 221.533 196.624 226.502 204.701 226.502 204.701 228.754"></polygon>
    <polygon fill="#FFFFFF" points="57.767 251.968 57.767 235.437 68.358 235.437 68.358 237.689 60.281 237.689 60.281 242.518 67.171 242.518 67.171 244.747 60.281 244.747 60.281 249.716 68.358 249.716 68.358 251.968"></polygon>
    <path fill="#FFFFFF" d="M77.4786535 252.107141C74.1038079 252.107141 71.5432989 249.808477 71.5432989 246.395752L71.5432989 235.436941 74.0570257 235.436941 74.0570257 246.279625C74.0570257 248.484954 75.4071816 249.855144 77.4786535 249.855144 79.5501254 249.855144 80.9231284 248.484954 80.9231284 246.279625L80.9231284 235.436941 83.4368552 235.436941 83.4368552 246.395752C83.4368552 249.808477 80.8534991 252.107141 77.4786535 252.107141M93.744876 237.688775L90.020796 237.688775 90.020796 242.866738 93.744876 242.866738C95.4208752 242.866738 96.5610552 241.914388 96.5610552 240.289152 96.5610552 238.663916 95.4208752 237.688775 93.744876 237.688775L93.744876 237.688775zM96.6540756 251.967517L93.1628185 245.002608 90.020796 245.002608 90.020796 251.967517 87.5070691 251.967517 87.5070691 235.437321 93.9309168 235.437321C97.0729394 235.437321 99.074782 237.456521 99.074782 240.265818 99.074782 242.633942 97.6316058 244.143593 95.7695658 244.654227L99.5866662 251.967517 96.6540756 251.967517zM110.569711 238.571069C109.987653 237.944309 109.080296 237.54926 108.102766 237.54926 107.125236 237.54926 106.217335 237.944309 105.635821 238.571069 104.820941 239.453417 104.657747 240.382434 104.657747 243.702365 104.657747 247.022296 104.820941 247.95077 105.635821 248.833118 106.217335 249.459878 107.125236 249.854927 108.102766 249.854927 109.080296 249.854927 109.987653 249.459878 110.569711 248.833118 111.384591 247.95077 111.547241 247.022296 111.547241 243.702365 111.547241 240.382434 111.384591 239.453417 110.569711 238.571069M112.477989 250.342227C111.337809 251.480163 109.871242 252.106924 108.102766 252.106924 106.333746 252.106924 104.891114 251.480163 103.75039 250.342227 102.121173 248.716991 102.144564 246.882835 102.144564 243.702365 102.144564 240.521352 102.121173 238.687196 103.75039 237.06196 104.891114 235.924566 106.333746 235.297806 108.102766 235.297806 109.871242 235.297806 111.337809 235.924566 112.477989 237.06196 114.107206 238.687196 114.060968 240.521352 114.060968 243.702365 114.060968 246.882835 114.107206 248.716991 112.477989 250.342227M123.926951 237.688775L120.296435 237.688775 120.296435 243.191786 123.926951 243.191786C125.67258 243.191786 126.859542 242.19331 126.859542 240.451947 126.859542 238.710584 125.67258 237.688775 123.926951 237.688775M124.066754 245.466573L120.296435 245.466573 120.296435 251.967517 117.782709 251.967517 117.782709 235.437321 124.066754 235.437321C127.301797 235.437321 129.373269 237.572648 129.373269 240.451947 129.373269 243.330704 127.301797 245.466573 124.066754 245.466573M138.075463 233.834551L136.283597 233.834551 138.029225 230.073446 140.65882 230.073446 138.075463 233.834551zM132.419714 251.967734L132.419714 235.436995 143.009353 235.436995 143.009353 237.688992 134.933441 237.688992 134.933441 242.518032 141.822935 242.518032 141.822935 244.746694 134.933441 244.746694 134.933441 249.715738 143.009353 249.715738 143.009353 251.967734 132.419714 251.967734z"></path>
    <polygon fill="#FFFFFF" points="146.452 251.968 146.452 235.437 157.042 235.437 157.042 237.689 148.966 237.689 148.966 242.518 155.855 242.518 155.855 244.747 148.966 244.747 148.966 249.716 157.042 249.716 157.042 251.968"></polygon>
    <polygon fill="#FFFFFF" points="170.655 251.968 162.998 240.335 162.998 251.968 160.484 251.968 160.484 235.437 162.789 235.437 170.446 247.046 170.446 235.437 172.96 235.437 172.96 251.968"></polygon>
    <polygon fill="#FFFFFF" points="187.456 251.968 179.799 240.335 179.799 251.968 177.286 251.968 177.286 235.437 179.59 235.437 187.247 247.046 187.247 235.437 189.761 235.437 189.761 251.968"></polygon>
    <polygon fill="#FFFFFF" points="194.087 251.968 194.087 235.437 204.677 235.437 204.677 237.689 196.6 237.689 196.6 242.518 203.49 242.518 203.49 244.747 196.6 244.747 196.6 249.716 204.677 249.716 204.677 251.968"></polygon>
    <path fill="#FFFFFF" d="M153.808587,262.01739 C153.110118,261.251169 152.17937,260.902787 150.992407,260.902787 L147.943405,260.902787 L147.943405,272.929533 L150.992407,272.929533 C152.17937,272.929533 153.110118,272.581695 153.808587,271.815474 C154.669705,270.863666 154.693096,269.075635 154.693096,266.800305 C154.693096,264.524974 154.669705,262.96974 153.808587,262.01739 M155.530824,273.626838 C154.483665,274.670896 152.970859,275.182072 151.248078,275.182072 L145.429678,275.182072 L145.429678,258.651334 L151.248078,258.651334 C152.970859,258.651334 154.483665,259.161425 155.530824,260.206568 C157.322691,261.994056 157.206823,264.408847 157.206823,266.800305 C157.206823,269.191762 157.322691,271.838807 155.530824,273.626838"></path>
    <polygon fill="#FFFFFF" points="160.579 263.202 160.579 258.651 163.186 258.651 163.186 261.089"></polygon>
    <path fill="#FFFFFF" d="M170.469575 262.388834L167.885675 269.726001 172.983302 269.726001 170.469575 262.388834zM174.82195 275.181801L173.681227 271.86187 167.140967 271.86187 166.000787 275.181801 163.324411 275.181801 169.399024 258.651062 171.423714 258.651062 177.498327 275.181801 174.82195 275.181801zM186.084546 260.90295L182.360465 260.90295 182.360465 266.080914 186.084546 266.080914C187.760545 266.080914 188.900725 265.128564 188.900725 263.503328 188.900725 261.878092 187.760545 260.90295 186.084546 260.90295L186.084546 260.90295zM188.993745 275.181693L185.502488 268.216783 182.360465 268.216783 182.360465 275.181693 179.846739 275.181693 179.846739 258.651497 186.270586 258.651497C189.412609 258.651497 191.414452 260.670696 191.414452 263.479994 191.414452 265.848117 189.971275 267.357769 188.109235 267.868402L191.926336 275.181693 188.993745 275.181693z"></path>
    <polygon fill="#FFFFFF" points="200.698 260.903 200.698 275.182 198.185 275.182 198.185 260.903 193.623 260.903 193.623 258.651 205.26 258.651 205.26 260.903"></polygon>
    <path fill="#FFFFFF" d="M37.9418808 298.534949C36.2196433 298.534949 34.7302289 297.908189 33.589505 296.770252 31.960288 295.145016 31.9836791 293.31086 31.9836791 290.13039 31.9836791 286.948835 31.960288 285.115221 33.589505 283.489443 34.7302289 282.352592 36.2196433 281.725289 37.9418808 281.725289 40.9908829 281.725289 43.2717868 283.512777 43.8538443 286.810459L41.2933352 286.810459C40.8978625 285.138555 39.7805297 283.977285 37.9418808 283.977285 36.9643506 283.977285 36.0798407 284.348457 35.4977832 284.97576 34.6834467 285.858109 34.4968619 286.810459 34.4968619 290.13039 34.4968619 293.450321 34.6834467 294.402129 35.4977832 295.284477 36.0798407 295.911238 36.9643506 296.282953 37.9418808 296.282953 39.7805297 296.282953 40.9212536 295.121682 41.3167263 293.450321L43.8538443 293.450321C43.2951779 296.746918 40.9446447 298.534949 37.9418808 298.534949M55.0227662 284.998932C54.4407087 284.372171 53.5333518 283.977122 52.5558216 283.977122 51.5782913 283.977122 50.6703904 284.372171 50.0888769 284.998932 49.2739964 285.88128 49.1108027 286.810296 49.1108027 290.130227 49.1108027 293.450158 49.2739964 294.378632 50.0888769 295.260981 50.6703904 295.887741 51.5782913 296.28279 52.5558216 296.28279 53.5333518 296.28279 54.4407087 295.887741 55.0227662 295.260981 55.8376467 294.378632 56.0002964 293.450158 56.0002964 290.130227 56.0002964 286.810296 55.8376467 285.88128 55.0227662 284.998932M56.9310445 296.770089C55.7908645 297.908026 54.3242972 298.534786 52.5558216 298.534786 50.7868019 298.534786 49.3441697 297.908026 48.2034458 296.770089 46.5742287 295.144854 46.5976198 293.310697 46.5976198 290.130227 46.5976198 286.949215 46.5742287 285.115059 48.2034458 283.489823 49.3441697 282.352429 50.7868019 281.725668 52.5558216 281.725668 54.3242972 281.725668 55.7908645 282.352429 56.9310445 283.489823 58.5602615 285.115059 58.5140233 286.949215 58.5140233 290.130227 58.5140233 293.310697 58.5602615 295.144854 56.9310445 296.770089"></path>
    <polygon fill="#FFFFFF" points="72.406 298.396 64.749 286.763 64.749 298.396 62.236 298.396 62.236 281.864 64.54 281.864 72.197 293.474 72.197 281.864 74.711 281.864 74.711 298.396"></polygon>
    <polygon fill="#FFFFFF" points="84.646 284.117 84.646 298.395 82.132 298.395 82.132 284.117 77.57 284.117 77.57 281.865 89.208 281.865 89.208 284.117"></polygon>
    <polygon fill="#FFFFFF" points="92.068 298.396 92.068 281.864 102.659 281.864 102.659 284.117 94.582 284.117 94.582 288.946 101.472 288.946 101.472 291.175 94.582 291.175 94.582 296.144 102.659 296.144 102.659 298.396"></polygon>
    <polygon fill="#FFFFFF" points="118.203 298.396 118.203 287.344 114.386 295.4 112.525 295.4 108.614 287.344 108.614 298.396 106.1 298.396 106.1 281.864 108.614 281.864 113.455 292.15 118.203 281.864 120.717 281.864 120.717 298.396"></polygon>
    <path fill="#FFFFFF" d="M131.163884 284.116583L127.533369 284.116583 127.533369 289.619594 131.163884 289.619594C132.909513 289.619594 134.096475 288.621119 134.096475 286.879756 134.096475 285.138393 132.909513 284.116583 131.163884 284.116583M131.303687 291.894924L127.533369 291.894924 127.533369 298.395325 125.019642 298.395325 125.019642 281.864587 131.303687 281.864587C134.53873 281.864587 136.610202 284.000456 136.610202 286.879756 136.610202 289.758512 134.53873 291.894924 131.303687 291.894924M147.477161 284.998932C146.895647 284.372171 145.987746 283.977122 145.010216 283.977122 144.032686 283.977122 143.124785 284.372171 142.543272 284.998932 141.728391 285.88128 141.565197 286.810296 141.565197 290.130227 141.565197 293.450158 141.728391 294.378632 142.543272 295.260981 143.124785 295.887741 144.032686 296.28279 145.010216 296.28279 145.987746 296.28279 146.895647 295.887741 147.477161 295.260981 148.292041 294.378632 148.454691 293.450158 148.454691 290.130227 148.454691 286.810296 148.292041 285.88128 147.477161 284.998932M149.385439 296.770089C148.245259 297.908026 146.778692 298.534786 145.010216 298.534786 143.241197 298.534786 141.798564 297.908026 140.65784 296.770089 139.028623 295.144854 139.052015 293.310697 139.052015 290.130227 139.052015 286.949215 139.028623 285.115059 140.65784 283.489823 141.798564 282.352429 143.241197 281.725668 145.010216 281.725668 146.778692 281.725668 148.245259 282.352429 149.385439 283.489823 151.014656 285.115059 150.968418 286.949215 150.968418 290.130227 150.968418 293.310697 151.014656 295.144854 149.385439 296.770089M160.927367 284.116583L157.203287 284.116583 157.203287 289.294004 160.927367 289.294004C162.603367 289.294004 163.743547 288.342197 163.743547 286.716961 163.743547 285.091725 162.603367 284.116583 160.927367 284.116583L160.927367 284.116583zM163.836567 298.395325L160.34531 291.430416 157.203287 291.430416 157.203287 298.395325 154.689561 298.395325 154.689561 281.864587 161.113408 281.864587C164.255431 281.864587 166.257273 283.884329 166.257273 286.694169 166.257273 289.06175 164.814097 290.571402 162.952057 291.082035L166.769158 298.395325 163.836567 298.395325zM175.099217 285.602521L172.515316 292.939688 177.612943 292.939688 175.099217 285.602521zM179.451592 298.395488L178.310868 295.075557 171.770609 295.075557 170.630429 298.395488 167.954053 298.395488 174.028666 281.864207 176.053356 281.864207 182.127969 298.395488 179.451592 298.395488z"></path>
    <polygon fill="#FFFFFF" points="184.476 298.395 186.99 298.395 186.99 281.864 184.476 281.864"></polygon>
    <polygon fill="#FFFFFF" points="201.489 298.396 193.832 286.763 193.832 298.396 191.318 298.396 191.318 281.864 193.622 281.864 201.279 293.474 201.279 281.864 203.793 281.864 203.793 298.396"></polygon>
    <path fill="#B08A49" d="M235.08005,243.036 L235.08005,212.216 L230.664826,212.216 L224.648,217.410382 L224.648,222.301758 L230.664826,217.020803 L230.664826,243.036 L235.08005,243.036 Z M263.865584,216.155073 L263.865584,212.216 L245.512101,212.216 L245.512101,221.003163 L249.75418,221.003163 L249.75418,216.155073 L259.147354,216.155073 L248.801876,243.036 L253.563393,243.036 L263.865584,216.155073 Z"></path>
    <polygon fill="#B18A48" points="292.997 241.998 288.517 241.998 300.315 230.297 274.838 230.297 274.838 226.988 300.315 226.988 288.517 215.286 292.997 215.286 306.403 228.659"></polygon>
    <polygon fill="#B18A48" points="397.516 243.126 383.36 221.621 383.36 243.126 378.713 243.126 378.713 212.564 382.973 212.564 397.129 234.026 397.129 212.564 401.776 212.564 401.776 243.126"></polygon>
    <path fill="#B08A49" d="M338.623591,242.564585 L338.623591,238.690801 L326.278563,238.690801 L335.771464,227.069447 C337.644503,224.770718 338.623591,223.195663 338.623591,220.513812 C338.623591,215.277818 335.04779,212 329.854365,212 C324.703508,212 321.042569,215.405525 321.042569,220.556381 L325.384613,220.556381 C325.384613,217.150856 327.555635,215.873784 329.854365,215.873784 C332.663923,215.873784 334.281547,217.746823 334.281547,220.471243 C334.281547,222.003729 333.813287,223.110525 332.663923,224.515304 L321,238.690801 L321,242.564585 L338.623591,242.564585 Z M361.100055,234.135911 L361.100055,220.684088 C361.100055,215.277818 357.141132,212 352.330828,212 C347.520525,212 343.604171,215.277818 343.604171,220.684088 L343.604171,234.135911 C343.604171,239.542182 347.520525,242.82 352.330828,242.82 C357.141132,242.82 361.100055,239.542182 361.100055,234.135911 Z M356.758011,234.008204 C356.758011,236.945469 355.097817,238.946215 352.330828,238.946215 C349.563839,238.946215 347.946215,236.945469 347.946215,234.008204 L347.946215,220.811795 C347.946215,217.87453 349.563839,215.873784 352.330828,215.873784 C355.097817,215.873784 356.758011,217.87453 356.758011,220.811795 L356.758011,234.008204 Z"></path>
    <path fill="#B18A48" d="M424.239343,218.358995 C423.163353,217.199895 421.485722,216.470574 419.67808,216.470574 C417.870981,216.470574 416.192806,217.199895 415.116816,218.358995 C413.611082,219.9902 413.309718,221.707143 413.309718,227.845054 C413.309718,233.983508 413.611082,235.700452 415.116816,237.331657 C416.192806,238.490757 417.870981,239.220078 419.67808,239.220078 C421.485722,239.220078 423.163353,238.490757 424.239343,237.331657 C425.745621,235.700452 426.046441,233.983508 426.046441,227.845054 C426.046441,221.707143 425.745621,219.9902 424.239343,218.358995 M427.767591,240.121419 C425.659128,242.22473 422.948481,243.383829 419.67808,243.383829 C416.408222,243.383829 413.740005,242.22473 411.631543,240.121419 C408.619531,237.116768 408.662505,233.72575 408.662505,227.845054 C408.662505,221.964902 408.619531,218.573884 411.631543,215.56869 C413.740005,213.465379 416.408222,212.306822 419.67808,212.306822 C422.948481,212.306822 425.659128,213.465379 427.767591,215.56869 C430.779602,218.573884 430.693654,221.964902 430.693654,227.845054 C430.693654,233.72575 430.779602,237.116768 427.767591,240.121419"></path>
    <polygon fill="#B18A48" points="447.09 243.126 443.475 243.126 433.406 212.564 438.226 212.564 445.283 234.799 452.339 212.564 457.245 212.564"></polygon>
    <polygon fill="#B18A48" points="457.375 243.126 462.624 243.126 462.624 237.89 457.375 237.89"></polygon>
    <path fill="#FFFFFF" d="M229.169639 260.90295L225.539123 260.90295 225.539123 266.405961 229.169639 266.405961C230.915267 266.405961 232.102229 265.407486 232.102229 263.666123 232.102229 261.92476 230.915267 260.90295 229.169639 260.90295M229.309441 268.680749L225.539123 268.680749 225.539123 275.181693 223.025396 275.181693 223.025396 258.651497 229.309441 258.651497C232.544484 258.651497 234.615956 260.786823 234.615956 263.666123 234.615956 266.544879 232.544484 268.680749 229.309441 268.680749M241.665978 262.388834L239.082078 269.726001 244.179705 269.726001 241.665978 262.388834zM246.018354 275.181801L244.87763 271.86187 238.337371 271.86187 237.197191 275.181801 234.520814 275.181801 240.595428 258.651062 242.620117 258.651062 248.694731 275.181801 246.018354 275.181801zM257.280677 260.90295L253.557141 260.90295 253.557141 266.080914 257.280677 266.080914C258.956676 266.080914 260.0974 265.128564 260.0974 263.503328 260.0974 261.878092 258.956676 260.90295 257.280677 260.90295L257.280677 260.90295zM260.190421 275.181693L256.699164 268.216783 253.557141 268.216783 253.557141 275.181693 251.043414 275.181693 251.043414 258.651497 257.467262 258.651497C260.609284 258.651497 262.610583 260.670696 262.610583 263.479994 262.610583 265.848117 261.167951 267.357769 259.305911 267.868402L263.122467 275.181693 260.190421 275.181693zM271.638785 275.321316C269.916547 275.321316 268.427133 274.694556 267.286953 273.556619 265.657736 271.931383 265.680583 270.097227 265.680583 266.916757 265.680583 263.735202 265.657736 261.901589 267.286953 260.27581 268.427133 259.138959 269.916547 258.511656 271.638785 258.511656 274.687787 258.511656 276.969235 260.299144 277.550748 263.596826L274.990239 263.596826C274.59531 261.924923 273.477977 260.763652 271.638785 260.763652 270.661254 260.763652 269.776745 261.134825 269.195231 261.762128 268.380894 262.644476 268.19431 263.596826 268.19431 266.916757 268.19431 270.236688 268.380894 271.188496 269.195231 272.070844 269.776745 272.697605 270.661254 273.06932 271.638785 273.06932 273.477977 273.06932 274.618157 271.90805 275.01363 270.236688L277.550748 270.236688C276.992082 273.533285 274.641548 275.321316 271.638785 275.321316"></path>
    <polygon fill="#FFFFFF" points="286.484 275.182 286.484 258.651 297.074 258.651 297.074 260.903 288.998 260.903 288.998 265.732 295.887 265.732 295.887 267.961 288.998 267.961 288.998 272.93 297.074 272.93 297.074 275.182"></polygon>
    <polygon fill="#FFFFFF" points="308.663 275.182 305.055 268.843 301.471 275.182 298.585 275.182 303.705 266.707 298.911 258.651 301.797 258.651 305.055 264.571 308.337 258.651 311.223 258.651 306.429 266.707 311.572 275.182"></polygon>
    <path fill="#FFFFFF" d="M320.111282 260.90295L316.480223 260.90295 316.480223 266.405961 320.111282 266.405961C321.856911 266.405961 323.043873 265.407486 323.043873 263.666123 323.043873 261.92476 321.856911 260.90295 320.111282 260.90295M320.251085 268.680749L316.480223 268.680749 316.480223 275.181693 313.96704 275.181693 313.96704 258.651497 320.251085 258.651497C323.486128 258.651497 325.5576 260.786823 325.5576 263.666123 325.5576 266.544879 323.486128 268.680749 320.251085 268.680749M336.424831 261.785244C335.842774 261.158484 334.935417 260.763435 333.957342 260.763435 332.979812 260.763435 332.072455 261.158484 331.490398 261.785244 330.676061 262.667593 330.512867 263.596609 330.512867 266.91654 330.512867 270.236471 330.676061 271.164945 331.490398 272.047293 332.072455 272.674054 332.979812 273.069103 333.957342 273.069103 334.935417 273.069103 335.842774 272.674054 336.424831 272.047293 337.239168 271.164945 337.402361 270.236471 337.402361 266.91654 337.402361 263.596609 337.239168 262.667593 336.424831 261.785244M338.333109 273.556402C337.192385 274.694339 335.726362 275.321099 333.957342 275.321099 332.188867 275.321099 330.745691 274.694339 329.605511 273.556402 327.976294 271.931166 327.999141 270.09701 327.999141 266.91654 327.999141 263.735528 327.976294 261.901372 329.605511 260.276136 330.745691 259.138742 332.188867 258.511981 333.957342 258.511981 335.726362 258.511981 337.192385 259.138742 338.333109 260.276136 339.962326 261.901372 339.915544 263.735528 339.915544 266.91654 339.915544 270.09701 339.962326 271.931166 338.333109 273.556402"></path>
    <path fill="#B18A48" d="M353.61968,275.321316 C351.129344,275.321316 349.337478,274.741224 347.754499,273.138779 L349.430498,271.490209 C350.640307,272.697605 351.967072,273.06932 353.666462,273.06932 C355.830411,273.06932 357.087546,272.140846 357.087546,270.538944 C357.087546,269.818305 356.878114,269.214879 356.435859,268.820373 C356.016995,268.425866 355.598132,268.263071 354.620601,268.12361 L352.665541,267.845231 C351.315929,267.659645 350.244834,267.194594 349.523518,266.521708 C348.709182,265.755487 348.313165,264.710886 348.313165,263.36403 C348.313165,260.485273 350.408028,258.511656 353.852503,258.511656 C356.040386,258.511656 357.576039,259.068957 358.996368,260.391937 L357.390542,261.971048 C356.36623,260.996449 355.179268,260.694193 353.782874,260.694193 C351.827813,260.694193 350.756719,261.808795 350.756719,263.271236 C350.756719,263.874663 350.943303,264.409173 351.385558,264.803679 C351.804422,265.175394 352.478956,265.453774 353.247054,265.569901 L355.132486,265.84828 C356.668682,266.081077 357.529801,266.451707 358.22827,267.07901 C359.136171,267.868565 359.577882,269.052627 359.577882,270.468942 C359.577882,273.510494 357.087546,275.321316 353.61968,275.321316"></path>
    <polygon fill="#B18A48" points="368.559 260.903 368.559 275.182 366.046 275.182 366.046 260.903 361.484 260.903 361.484 258.651 373.122 258.651 373.122 260.903"></polygon>
    <path fill="#B18A48" d="M382.219483 260.90295L378.495403 260.90295 378.495403 266.080914 382.219483 266.080914C383.895483 266.080914 385.036207 265.128564 385.036207 263.503328 385.036207 261.878092 383.895483 260.90295 382.219483 260.90295L382.219483 260.90295zM385.129227 275.181693L381.63797 268.216783 378.495403 268.216783 378.495403 275.181693 375.982221 275.181693 375.982221 258.651497 382.406068 258.651497C385.548091 258.651497 387.549389 260.670696 387.549389 263.479994 387.549389 265.848117 386.106757 267.357769 384.244717 267.868402L388.061274 275.181693 385.129227 275.181693zM396.391605 262.388834L393.808248 269.726001 398.905331 269.726001 396.391605 262.388834zM400.74398 275.181801L399.603256 271.86187 393.063541 271.86187 391.922817 275.181801 389.246441 275.181801 395.321054 258.651062 397.345744 258.651062 403.420357 275.181801 400.74398 275.181801zM410.167981 275.321316C407.677645 275.321316 405.885778 274.741224 404.3028 273.138779L405.978799 271.490209C407.188608 272.697605 408.515373 273.06932 410.214763 273.06932 412.378711 273.06932 413.635847 272.140846 413.635847 270.538944 413.635847 269.818305 413.426415 269.214879 412.98416 268.820373 412.565296 268.425866 412.146432 268.263071 411.168902 268.12361L409.213842 267.845231C407.86423 267.659645 406.793135 267.194594 406.071819 266.521708 405.257483 265.755487 404.861466 264.710886 404.861466 263.36403 404.861466 260.485273 406.956329 258.511656 410.400804 258.511656 412.588687 258.511656 414.12434 259.068957 415.544669 260.391937L413.938843 261.971048C412.914531 260.996449 411.727569 260.694193 410.331175 260.694193 408.376114 260.694193 407.30502 261.808795 407.30502 263.271236 407.30502 263.874663 407.491604 264.409173 407.933859 264.803679 408.352723 265.175394 409.027257 265.453774 409.795355 265.569901L411.680786 265.84828C413.216983 266.081077 414.078102 266.451707 414.776571 267.07901 415.684472 267.868565 416.126183 269.052627 416.126183 270.468942 416.126183 273.510494 413.635847 275.321316 410.167981 275.321316M425.968884 267.891682L422.012525 267.891682 422.012525 272.929642 425.968884 272.929642C427.714512 272.929642 428.692587 271.861707 428.692587 270.399266 428.692587 268.936283 427.714512 267.891682 425.968884 267.891682M425.736061 260.902896L422.012525 260.902896 422.012525 265.639685 425.736061 265.639685C427.341887 265.639685 428.436372 264.804005 428.436372 263.271019 428.436372 261.739119 427.341887 260.902896 425.736061 260.902896M426.202251 275.182181L419.498798 275.182181 419.498798 258.651442 425.946037 258.651442C429.017886 258.651442 430.949555 260.392263 430.949555 263.178226 430.949555 264.965715 429.832766 266.243112 428.715434 266.684286 429.995416 267.19492 431.205769 268.425649 431.205769 270.515393 431.205769 273.556402 429.134297 275.182181 426.202251 275.182181M442.747752 261.785244C442.165695 261.158484 441.258338 260.763435 440.280263 260.763435 439.302733 260.763435 438.395376 261.158484 437.813319 261.785244 436.998982 262.667593 436.835789 263.596609 436.835789 266.91654 436.835789 270.236471 436.998982 271.164945 437.813319 272.047293 438.395376 272.674054 439.302733 273.069103 440.280263 273.069103 441.258338 273.069103 442.165695 272.674054 442.747752 272.047293 443.562089 271.164945 443.725282 270.236471 443.725282 266.91654 443.725282 263.596609 443.562089 262.667593 442.747752 261.785244M444.65603 273.556402C443.515306 274.694339 442.049283 275.321099 440.280263 275.321099 438.511788 275.321099 437.068612 274.694339 435.927888 273.556402 434.299215 271.931166 434.322062 270.09701 434.322062 266.91654 434.322062 263.735528 434.299215 261.901372 435.927888 260.276136 437.068612 259.138742 438.511788 258.511981 440.280263 258.511981 442.049283 258.511981 443.515306 259.138742 444.65603 260.276136 446.285247 261.901372 446.238465 263.735528 446.238465 266.91654 446.238465 270.09701 446.285247 271.931166 444.65603 273.556402M455.639075 275.321316C452.264229 275.321316 449.704264 273.022652 449.704264 269.609928L449.704264 258.651117 452.217447 258.651117 452.217447 269.493801C452.217447 271.699129 453.567603 273.06932 455.639075 273.06932 457.710547 273.06932 459.08355 271.699129 459.08355 269.493801L459.08355 258.651117 461.597276 258.651117 461.597276 269.609928C461.597276 273.022652 459.01392 275.321316 455.639075 275.321316M471.904808 260.90295L468.180728 260.90295 468.180728 266.080914 471.904808 266.080914C473.580807 266.080914 474.721531 265.128564 474.721531 263.503328 474.721531 261.878092 473.580807 260.90295 471.904808 260.90295L471.904808 260.90295zM474.814551 275.181693L471.323294 268.216783 468.180728 268.216783 468.180728 275.181693 465.667545 275.181693 465.667545 258.651497 472.091392 258.651497C475.233415 258.651497 477.234714 260.670696 477.234714 263.479994 477.234714 265.848117 475.792081 267.357769 473.930041 267.868402L477.746598 275.181693 474.814551 275.181693zM490.825104 273.440601C489.567968 274.763581 488.00838 275.321425 486.262752 275.321425 484.540514 275.321425 483.0511 274.694664 481.91092 273.556728 480.281703 271.931492 480.30455 270.097336 480.30455 266.916866 480.30455 263.735311 480.281703 261.901154 481.91092 260.275919 483.0511 259.139067 484.494276 258.511764 486.262752 258.511764 489.7774 258.511764 491.826025 260.810428 492.291127 263.642517L489.754009 263.642517C489.335689 261.831695 488.124792 260.763761 486.262752 260.763761 485.285222 260.763761 484.400712 261.158267 483.819198 261.785027 483.004862 262.667376 482.818277 263.596392 482.818277 266.916866 482.818277 270.236797 483.004862 271.188605 483.819198 272.070953 484.400712 272.697713 485.285222 273.068886 486.262752 273.068886 487.357238 273.068886 488.311377 272.651046 488.963064 271.908158 489.567968 271.211938 489.800791 270.376258 489.800791 269.307781L489.800791 268.379307 486.262752 268.379307 486.262752 266.242895 492.314518 266.242895 492.314518 268.773813C492.314518 270.909683 491.919045 272.27933 490.825104 273.440601"></path>
    <polygon fill="#FFFFFF" points="236.548 298.396 234.36 298.396 230.985 286.81 227.633 298.396 225.446 298.396 221.117 281.864 223.77 281.864 226.656 293.682 229.985 281.864 232.009 281.864 235.337 293.682 238.224 281.864 240.877 281.864"></polygon>
    <polygon fill="#FFFFFF" points="256.816 298.396 254.629 298.396 251.254 286.81 247.902 298.396 245.714 298.396 241.385 281.864 244.038 281.864 246.925 293.682 250.253 281.864 252.277 281.864 255.605 293.682 258.492 281.864 261.145 281.864"></polygon>
    <polygon fill="#FFFFFF" points="277.085 298.396 274.897 298.396 271.522 286.81 268.17 298.396 265.983 298.396 261.654 281.864 264.307 281.864 267.193 293.682 270.521 281.864 272.546 281.864 275.874 293.682 278.76 281.864 281.414 281.864"></polygon>
    <polygon fill="#FFFFFF" points="282.318 298.395 285.158 298.395 285.158 295.563 282.318 295.563"></polygon>
    <path fill="#FFFFFF" d="M293.535516,298.534949 C291.04518,298.534949 289.253313,297.954857 287.670335,296.352955 L289.346334,294.703842 C290.556143,295.911238 291.882908,296.282953 293.582298,296.282953 C295.746246,296.282953 297.003382,295.354479 297.003382,293.752034 C297.003382,293.031938 296.79395,292.428512 296.351695,292.034005 C295.932831,291.639499 295.513967,291.476704 294.536437,291.337243 L292.581377,291.058864 C291.231765,290.873278 290.16067,290.40877 289.439354,289.735341 C288.625018,288.96912 288.229001,287.924519 288.229001,286.577662 C288.229001,283.698906 290.323864,281.725289 293.768339,281.725289 C295.956222,281.725289 297.491875,282.28259 298.912204,283.60557 L297.306378,285.184681 C296.282066,284.210082 295.095104,283.907826 293.69871,283.907826 C291.743649,283.907826 290.672555,285.022428 290.672555,286.484869 C290.672555,287.088296 290.859139,287.622806 291.301394,288.017312 C291.720258,288.389027 292.394792,288.667407 293.16289,288.783534 L295.048321,289.061913 C296.584518,289.294167 297.445637,289.665882 298.144106,290.292642 C299.052007,291.082198 299.493718,292.265717 299.493718,293.682575 C299.493718,296.723584 297.003382,298.534949 293.535516,298.534949"></path>
    <polygon fill="#FFFFFF" points="308.475 284.117 308.475 298.395 305.962 298.395 305.962 284.117 301.4 284.117 301.4 281.865 313.038 281.865 313.038 284.117"></polygon>
    <polygon fill="#FFFFFF" points="315.293 293.055 322.089 293.055 322.089 290.85 315.293 290.85"></polygon>
    <path fill="#FFFFFF" d="M330.978677 285.602521L328.395321 292.939688 333.492404 292.939688 330.978677 285.602521zM335.331052 298.395488L334.190329 295.075557 327.650613 295.075557 326.509889 298.395488 323.832969 298.395488 329.908126 281.864207 331.932816 281.864207 338.007429 298.395488 335.331052 298.395488zM346.593104 284.116583L342.869024 284.116583 342.869024 289.294004 346.593104 289.294004C348.269103 289.294004 349.409827 288.342197 349.409827 286.716961 349.409827 285.091725 348.269103 284.116583 346.593104 284.116583L346.593104 284.116583zM349.502847 298.395325L346.01159 291.430416 342.869024 291.430416 342.869024 298.395325 340.355841 298.395325 340.355841 281.864587 346.779688 281.864587C349.921711 281.864587 351.92301 283.884329 351.92301 286.694169 351.92301 289.06175 350.480377 290.571402 348.618337 291.082035L352.434894 298.395325 349.502847 298.395325z"></path>
    <polygon fill="#FFFFFF" points="361.207 284.117 361.207 298.395 358.694 298.395 358.694 284.117 354.132 284.117 354.132 281.865 365.77 281.865 365.77 284.117"></polygon>
    <polygon fill="#FFFFFF" points="366.419 298.395 369.259 298.395 369.259 295.563 366.419 295.563"></polygon>
    <path fill="#FFFFFF" d="M378.59011 298.534949C376.867873 298.534949 375.378458 297.908189 374.238278 296.770252 372.609061 295.145016 372.631908 293.31086 372.631908 290.13039 372.631908 286.948835 372.609061 285.115221 374.238278 283.489443 375.378458 282.352592 376.867873 281.725289 378.59011 281.725289 381.639112 281.725289 383.92056 283.512777 384.502074 286.810459L381.941565 286.810459C381.546636 285.138555 380.429303 283.977285 378.59011 283.977285 377.61258 283.977285 376.72807 284.348457 376.146557 284.97576 375.33222 285.858109 375.145635 286.810459 375.145635 290.13039 375.145635 293.450321 375.33222 294.402129 376.146557 295.284477 376.72807 295.911238 377.61258 296.282953 378.59011 296.282953 380.429303 296.282953 381.569483 295.121682 381.964956 293.450321L384.502074 293.450321C383.943407 296.746918 381.592874 298.534949 378.59011 298.534949M395.671812 284.998932C395.089754 284.372171 394.182397 283.977122 393.204323 283.977122 392.226793 283.977122 391.319436 284.372171 390.737378 284.998932 389.923042 285.88128 389.759848 286.810296 389.759848 290.130227 389.759848 293.450158 389.923042 294.378632 390.737378 295.260981 391.319436 295.887741 392.226793 296.28279 393.204323 296.28279 394.182397 296.28279 395.089754 295.887741 395.671812 295.260981 396.486148 294.378632 396.649342 293.450158 396.649342 290.130227 396.649342 286.810296 396.486148 285.88128 395.671812 284.998932M397.58009 296.770089C396.439366 297.908026 394.973343 298.534786 393.204323 298.534786 391.435847 298.534786 389.992671 297.908026 388.852491 296.770089 387.223274 295.144854 387.246121 293.310697 387.246121 290.130227 387.246121 286.949215 387.223274 285.115059 388.852491 283.489823 389.992671 282.352429 391.435847 281.725668 393.204323 281.725668 394.973343 281.725668 396.439366 282.352429 397.58009 283.489823 399.209307 285.115059 399.162525 286.949215 399.162525 290.130227 399.162525 293.310697 399.209307 295.144854 397.58009 296.770089"></path>
    <polygon fill="#FFFFFF" points="414.987 298.396 414.987 287.344 411.17 295.4 409.308 295.4 405.398 287.344 405.398 298.396 402.884 298.396 402.884 281.864 405.398 281.864 410.238 292.15 414.987 281.864 417.5 281.864 417.5 298.396"></polygon>
  </g>
</svg>