<?xml version="1.0" encoding="UTF-8"?>
<!-- Generator: Adobe Illustrator 21.0.0, SVG Export Plug-In . SVG Version: 6.00 Build 0)  -->
<svg version="1.1" id="Layer_1" xmlns="http://www.w3.org/2000/svg" xmlns:xlink="http://www.w3.org/1999/xlink" x="0px" y="0px" viewBox="0 0 274.4 277" style="enable-background:new 0 0 274.4 277;" xml:space="preserve">
<style type="text/css">
	.st0{fill:#E71D73;}
	.st1{fill:#FFFFFF;}
</style>
<g>
	<rect y="1.2" class="st0" width="274.4" height="274.4"/>
	<g>
		<path class="st1" d="M58,207.4c0,0.6,0.5,1.1,1.1,1.1h2.8c0.6,0,1.1-0.5,1.1-1.1V185h3.3c0.6,0,1.1-0.5,1.1-1.1v-2.7    c0-0.6-0.5-1.1-1.1-1.1H63v-3.5c0-2.6,0.3-3.2,3.5-3.7c0.5-0.1,0.9-0.5,0.9-1.1v-2.4c0-0.5-0.4-1-0.9-1.1s-0.9-0.1-1.2-0.1    c-4.5,0-7.3,3.2-7.3,8.3v3.5h-2.8c-0.6,0-1.1,0.5-1.1,1.1v2.7c0,0.6,0.5,1.1,1.1,1.1H58V207.4z"/>
		<path class="st1" d="M70.1,184.9H73v22.4c0,0.6,0.5,1.1,1.1,1.1H77c0.6,0,1.1-0.5,1.1-1.1v-22.4h3.3c0.6,0,1.1-0.5,1.1-1.1v-2.7    c0-0.6-0.5-1.1-1.1-1.1H78v-3.5c0-2.6,0.3-3.2,3.5-3.7c0.5-0.1,0.9-0.5,0.9-1.1v-2.4c0-0.5-0.4-1-0.9-1.1s-0.9-0.1-1.2-0.1    c-4.5,0-7.3,3.2-7.3,8.3v3.5h-2.8c-0.6,0-1.1,0.5-1.1,1.1v2.7C69.1,184.4,69.5,184.9,70.1,184.9"/>
		<path class="st1" d="M113.9,208.4h2.8c0.6,0,1.1-0.5,1.1-1.1v-13.6c0-3.1,0.4-4.6,1.6-6.3c1.3-1.9,3-2.8,5.3-2.8h0.9    c0.6,0,1.1-0.5,1.1-1.1v-2.7c0-0.5-0.4-1-0.9-1.1s-1-0.1-1.3-0.1c-2.8,0-5,0.8-6.7,2.6v-1.1c0-0.6-0.5-1.1-1.1-1.1h-2.8    c-0.6,0-1.1,0.5-1.1,1.1v26.2C112.9,207.9,113.3,208.4,113.9,208.4"/>
		<path class="st1" d="M59,255h2.8c0.6,0,1.1-0.5,1.1-1.1v-13.1c0-3.1,0.4-4.6,1.6-6.4c1.3-1.9,3-2.8,5.3-2.8h0.9    c0.6,0,1.1-0.5,1.1-1.1v-2.7c0-0.5-0.4-1-0.9-1.1s-1-0.1-1.3-0.1c-2.8,0-5,0.8-6.7,2.6v-1.5c0-0.6-0.5-1.1-1.1-1.1H59    c-0.6,0-1.1,0.5-1.1,1.1v26.2C58,254.5,58.4,255,59,255"/>
		<path class="st1" d="M157.7,255h2.8c0.6,0,1.1-0.5,1.1-1.1v-13.1c0-3.1,0.4-4.6,1.6-6.4c1.3-1.9,3-2.8,5.3-2.8h0.9    c0.6,0,1.1-0.5,1.1-1.1v-2.7c0-0.5-0.4-1-0.9-1.1s-1-0.1-1.3-0.1c-2.8,0-5,0.8-6.7,2.6v-1.5c0-0.6-0.5-1.1-1.1-1.1h-2.8    c-0.6,0-1.1,0.5-1.1,1.1v26.2C156.7,254.5,157.1,255,157.7,255"/>
		<path class="st1" d="M221.3,168.4h-2.8c-0.6,0-1.1,0.5-1.1,1.1v37.9c0,0.6,0.5,1.1,1.1,1.1h2.8c0.6,0,1.1-0.5,1.1-1.1v-37.9    C222.4,168.8,221.9,168.4,221.3,168.4"/>
		<path class="st1" d="M116.8,214.9H99.7c-0.6,0-1.1,0.5-1.1,1.1v37.9c0,0.6,0.5,1.1,1.1,1.1h3.2c0.6,0,1.1-0.5,1.1-1.1v-16.7h11    c0.6,0,1.1-0.5,1.1-1.1v-2.9c0-0.6-0.5-1.1-1.1-1.1h-11v-12.2h12.8c0.6,0,1.1-0.5,1.1-1.1V216    C117.9,215.4,117.4,214.9,116.8,214.9"/>
		<path class="st1" d="M152.2,226.7h-2.9c-0.6,0-1.1,0.5-1.1,1.1V254c0,0.6,0.5,1.1,1.1,1.1h2.9c0.6,0,1.1-0.5,1.1-1.1v-26.2    C153.2,227.1,152.8,226.7,152.2,226.7"/>
		<path class="st1" d="M150.7,218.7c-1.4,0-2.5,1.1-2.5,2.5s1.1,2.5,2.5,2.5s2.5-1.1,2.5-2.5S152.1,218.7,150.7,218.7"/>
		<path class="st1" d="M55.2,206.8L40.7,169c-0.2-0.4-0.6-0.7-1-0.7h-3.5c-0.4,0-0.8,0.3-1,0.7l-14.9,38c-0.1,0.3-0.1,0.7,0.1,1    s0.5,0.5,0.9,0.5h3.2c0.4,0,0.8-0.3,1-0.7l3.8-9.2v-0.1h10.3c0.6,0,1.1-0.5,1.1-1.1v-2.7c0-0.6-0.5-1.1-1.1-1.1h-8.4l0.1-0.2    l6.5-16.6l6.4,16.6l2,5.1l3.5,9.2c0.2,0.4,0.6,0.7,1,0.7h3.6l0,0c0.6,0,1.1-0.5,1.1-1.1C55.3,207.1,55.3,207,55.2,206.8"/>
		<path class="st1" d="M96.3,204.1c-5.3,0-8.8-3.9-8.8-9.8c0-5.9,3.5-9.9,8.8-9.9s8.9,3.9,8.9,9.6    C105.2,200.1,101.6,204.1,96.3,204.1 M110.3,194.1c0-8.4-5.9-14.5-14-14.5c-8.2,0-13.9,6-13.9,14.6s5.7,14.7,13.8,14.7    C104.2,208.9,110.3,202.5,110.3,194.1"/>
		<path class="st1" d="M148.4,194.6c-0.3,5.7-3.7,9.5-8.5,9.5s-8-3.9-8-9.6c0-6,3.3-10,8.3-10s8.3,3.9,8.3,9.6v0.5H148.4z     M152.3,168.4h-2.8c-0.6,0-1.1,0.5-1.1,1.1V183c-2.4-2.2-5.3-3.3-8.7-3.3c-7.5,0-13,6.2-13,14.8c0,8.4,5.5,14.5,13.1,14.5    c3.4,0,6.1-1.1,8.6-3.6v2.1c0,0.6,0.5,1.1,1.1,1.1h2.8c0.6,0,1.1-0.5,1.1-1.1v-37.9C153.4,168.8,152.9,168.4,152.3,168.4"/>
		<path class="st1" d="M170.1,204.1c-4.6,0-8.1-4.1-8.1-9.6c0-6,3.3-10,8.1-10c5.1,0,8.7,3.7,8.7,9.1    C178.8,199.6,175.1,204.1,170.1,204.1 M182.7,180.1h-2.8c-0.6,0-1.1,0.5-1.1,1.1v1.9c-2.4-2.3-5.3-3.5-8.8-3.5    c-7.6,0-13.1,6.2-13.1,14.6c0,8.5,5.5,14.6,13.2,14.6c2.8,0,5-0.8,7.2-2.5c0.6-0.5,1.1-0.9,1.5-1.4v2.4c0,0.6,0.5,1.1,1.1,1.1h2.8    c0.6,0,1.1-0.5,1.1-1.1v-26.2C183.8,180.6,183.3,180.1,182.7,180.1"/>
		<path class="st1" d="M200.7,184.5c4.8,0,8.1,4.1,8.1,10c0,5.8-3.3,9.6-8.3,9.6c-5.2,0-8.4-3.8-8.4-9.9v-0.8    C192.5,188.1,195.9,184.5,200.7,184.5 M200.8,179.6c-2.4,0-4.2,0.5-6.3,1.9c-0.9,0.6-1.6,1.1-2.2,1.7v-13.8c0-0.6-0.5-1.1-1.1-1.1    h-2.9c-0.6,0-1.1,0.5-1.1,1.1v37.9c0,0.6,0.5,1.1,1.1,1.1h2.9c0.6,0,1.1-0.5,1.1-1.1v-1.9c0.5,0.5,1,0.9,1.6,1.3    c2.1,1.4,4.4,2.1,7,2.1c7.6,0,13.1-6.1,13.1-14.5C213.9,185.7,208.5,179.6,200.8,179.6"/>
		<path class="st1" d="M239.8,184.5c4.5,0,7.8,2.9,8.5,7.3h-17c0.3-1.6,0.6-2.3,1.2-3.4C234,186,236.8,184.5,239.8,184.5     M239.8,179.6c-8.1,0-13.9,6.2-13.9,14.8c0,8.4,5.9,14.5,14,14.5c5.2,0,9.9-2.8,12-7.1c0.3-0.5,0.1-1.2-0.5-1.4l-2.3-1.3    c-0.5-0.3-1.2-0.1-1.4,0.4c-1.6,2.8-4.7,4.6-7.9,4.6c-4.4,0-7.7-2.9-8.5-7.5h21.3c0.6,0,1-0.4,1.1-1V195c0-0.5,0.1-0.9,0.1-1.2    C253.7,185.7,247.7,179.6,239.8,179.6"/>
		<path class="st1" d="M131.1,250.7c-4.6,0-8.1-4.1-8.1-9.6c0-6,3.3-10,8.1-10c5.1,0,8.7,3.7,8.7,9    C139.8,246.1,136.1,250.7,131.1,250.7 M143.7,226.7h-2.9c-0.6,0-1.1,0.5-1.1,1.1v1.9c-2.4-2.3-5.3-3.5-8.8-3.5    c-7.6,0-13.1,6.2-13.1,14.6c0,8.5,5.6,14.6,13.2,14.6c2.8,0,5-0.7,7.2-2.5c0.6-0.5,1.1-0.9,1.5-1.4v2.4c0,0.6,0.5,1.1,1.1,1.1h2.9    c0.6,0,1.1-0.5,1.1-1.1v-26.2C144.8,227.1,144.3,226.7,143.7,226.7"/>
		<path class="st1" d="M55.2,253.4l-14.5-37.7c-0.2-0.4-0.6-0.7-1-0.7h-3.5c-0.4,0-0.8,0.3-1,0.7l-14.9,37.9c-0.1,0.3-0.1,0.7,0.1,1    s0.5,0.5,0.9,0.5h3.2c0.4,0,0.8-0.3,1-0.7l3.8-9.2v-0.1H40c0.6,0,1.1-0.5,1.1-1.1v-2.7c0-0.6-0.5-1.1-1.1-1.1h-8.8l0.1-0.2    l6.5-16.6l6.4,16.6l2,5.1l3.5,9.2c0.2,0.4,0.6,0.7,1,0.7h3.6l0,0c0.6,0,1.1-0.5,1.1-1.1C55.3,253.7,55.3,253.5,55.2,253.4"/>
		<path class="st1" d="M85.7,231.5c0.6,0,1.1-0.5,1.1-1.1v-2.7c0-0.6-0.5-1.1-1.1-1.1h-3.2v-7.7c0-0.6-0.5-1.1-1.1-1.1h-2.8    c-0.6,0-1.1,0.5-1.1,1.1v7.7h-2.9c-0.5,0-0.9,0.4-1,0.8v3.2c0.1,0.5,0.5,0.8,1,0.8h2.9v18.8c0,3.1,1.7,4.7,5.2,4.7h3.1    c0.6,0,1.1-0.5,1.1-1.1v-2.6c0-0.6-0.5-1.1-1.1-1.1h-2.4c-0.5,0-0.7,0-0.8-0.1c0-0.1,0-0.2,0-0.5v-18.3h3.1V231.5z"/>
	</g>
</g>
</svg>